name ./resultDataOpenSim/trcMotMarkerGrf/sub06/grf-02-04.mot
datacolumns 19
datarows 25
range 0.98400000 1.08000000
endheader

                time	     ground_force_vx	     ground_force_vy	     ground_force_vz	     ground_force_px	     ground_force_py	     ground_force_pz	   l_ground_force_vx	   l_ground_force_vy	   l_ground_force_vz	   l_ground_force_px	   l_ground_force_py	   l_ground_force_pz	     ground_torque_x	     ground_torque_y	     ground_torque_z	   l_ground_torque_x	   l_ground_torque_y	   l_ground_torque_z	
          0.98400000	          0.00000000	          0.00000000	          0.00000000	          0.00000000	          0.00000000	          0.00000000	         63.48385938	        494.32543608	         23.69278032	          0.06804883	         -0.02500000	         -0.02136544	          0.00000000	          0.00000000	          0.00000000	          0.00000000	         -1.49210054	          0.00000000	
          0.98800000	          0.00000000	          0.00000000	          0.00000000	          0.00000000	          0.00000000	          0.00000000	         68.11654177	        515.27315248	         26.90600878	          0.06823927	         -0.02500000	         -0.02144346	          0.00000000	          0.00000000	          0.00000000	          0.00000000	         -1.45908785	          0.00000000	
          0.99200000	          0.00000000	          0.00000000	          0.00000000	          0.00000000	          0.00000000	          0.00000000	         72.95691850	        537.33026830	         30.25281166	          0.06839415	         -0.02500000	         -0.02154602	          0.00000000	          0.00000000	          0.00000000	          0.00000000	         -1.42255690	          0.00000000	
          0.99600000	          0.00000000	          0.00000000	          0.00000000	          0.00000000	          0.00000000	          0.00000000	         78.11058162	        560.21623176	         33.58808133	          0.06857792	         -0.02500000	         -0.02163890	          0.00000000	          0.00000000	          0.00000000	          0.00000000	         -1.38849315	          0.00000000	
          1.00000000	          0.00000000	          0.00000000	          0.00000000	          0.00000000	          0.00000000	          0.00000000	         83.67095135	        583.56935931	         36.78903236	          0.06884138	         -0.02500000	         -0.02169912	          0.00000000	          0.00000000	          0.00000000	          0.00000000	         -1.36329458	          0.00000000	
          1.00400000	          0.00000000	          0.00000000	          0.00000000	          0.00000000	          0.00000000	          0.00000000	         89.69032759	        606.96708394	         39.75733329	          0.06921580	         -0.02500000	         -0.02171204	          0.00000000	          0.00000000	          0.00000000	          0.00000000	         -1.35315278	          0.00000000	
          1.00800000	          0.00000000	          0.00000000	          0.00000000	          0.00000000	          0.00000000	          0.00000000	         96.18235791	        629.99070012	         42.41131526	          0.06969497	         -0.02500000	         -0.02166925	          0.00000000	          0.00000000	          0.00000000	          0.00000000	         -1.36345741	          0.00000000	
          1.01200000	          0.00000000	          0.00000000	          0.00000000	          0.00000000	          0.00000000	          0.00000000	        103.13246080	        652.28341410	         44.67287754	          0.07024892	         -0.02500000	         -0.02156208	          0.00000000	          0.00000000	          0.00000000	          0.00000000	         -1.39837087	          0.00000000	
          1.01600000	          0.00000000	          0.00000000	          0.00000000	          0.00000000	          0.00000000	          0.00000000	        110.49466466	        673.56295821	         46.45878604	          0.07083190	         -0.02500000	         -0.02139054	          0.00000000	          0.00000000	          0.00000000	          0.00000000	         -1.46069492	          0.00000000	
          1.02000000	          0.00000000	          0.00000000	          0.00000000	          0.00000000	          0.00000000	          0.00000000	        118.19465755	        693.55785516	         47.69422394	          0.07141272	         -0.02500000	         -0.02116386	          0.00000000	          0.00000000	          0.00000000	          0.00000000	         -1.55198895	          0.00000000	
          1.02400000	          0.00000000	          0.00000000	          0.00000000	          0.00000000	          0.00000000	          0.00000000	        126.14492891	        711.95510183	         48.33714487	          0.07200521	         -0.02500000	         -0.02089233	          0.00000000	          0.00000000	          0.00000000	          0.00000000	         -1.67271313	          0.00000000	
          1.02800000	          0.00000000	          0.00000000	          0.00000000	          0.00000000	          0.00000000	          0.00000000	        134.25820762	        728.44319992	         48.38937938	          0.07262010	         -0.02500000	         -0.02058294	          0.00000000	          0.00000000	          0.00000000	          0.00000000	         -1.82212875	          0.00000000	
          1.03200000	          0.00000000	          0.00000000	          0.00000000	          0.00000000	          0.00000000	          0.00000000	        142.45411064	        742.76214908	         47.88528609	          0.07325358	         -0.02500000	         -0.02023215	          0.00000000	          0.00000000	          0.00000000	          0.00000000	         -1.99784631	          0.00000000	
          1.03600000	          0.00000000	          0.00000000	          0.00000000	          0.00000000	          0.00000000	          0.00000000	        150.65028653	        754.68556610	         46.87392983	          0.07391160	         -0.02500000	         -0.01983056	          0.00000000	          0.00000000	          0.00000000	          0.00000000	         -2.19517658	          0.00000000	
          1.04000000	          0.00000000	          0.00000000	          0.00000000	          0.00000000	          0.00000000	          0.00000000	        158.74702966	        764.00642215	         45.41950696	          0.07460806	         -0.02500000	         -0.01937947	          0.00000000	          0.00000000	          0.00000000	          0.00000000	         -2.40666511	          0.00000000	
          1.04400000	          0.00000000	          0.00000000	          0.00000000	          0.00000000	          0.00000000	          0.00000000	        166.63362744	        770.57872280	         43.61711416	          0.07535986	         -0.02500000	         -0.01889429	          0.00000000	          0.00000000	          0.00000000	          0.00000000	         -2.62224788	          0.00000000	
          1.04800000	          0.00000000	          0.00000000	          0.00000000	          0.00000000	          0.00000000	          0.00000000	        174.21501181	        774.34886366	         41.59592442	          0.07617991	         -0.02500000	         -0.01839160	          0.00000000	          0.00000000	          0.00000000	          0.00000000	         -2.83027349	          0.00000000	
          1.05200000	          0.00000000	          0.00000000	          0.00000000	          0.00000000	          0.00000000	          0.00000000	        181.42977884	        775.31722848	         39.49397239	          0.07706870	         -0.02500000	         -0.01788193	          0.00000000	          0.00000000	          0.00000000	          0.00000000	         -3.01921840	          0.00000000	
          1.05600000	          0.00000000	          0.00000000	          0.00000000	          0.00000000	          0.00000000	          0.00000000	        188.24006209	        773.46690092	         37.41865080	          0.07801535	         -0.02500000	         -0.01737307	          0.00000000	          0.00000000	          0.00000000	          0.00000000	         -3.17949099	          0.00000000	
          1.06000000	          0.00000000	          0.00000000	          0.00000000	          0.00000000	          0.00000000	          0.00000000	        194.60597940	        768.72656142	         35.42045375	          0.07900634	         -0.02500000	         -0.01687103	          0.00000000	          0.00000000	          0.00000000	          0.00000000	         -3.30459679	          0.00000000	
          1.06400000	          0.00000000	          0.00000000	          0.00000000	          0.00000000	          0.00000000	          0.00000000	        200.47455472	        760.98809494	         33.49637436	          0.08002953	         -0.02500000	         -0.01637600	          0.00000000	          0.00000000	          0.00000000	          0.00000000	         -3.39127195	          0.00000000	
          1.06800000	          0.00000000	          0.00000000	          0.00000000	          0.00000000	          0.00000000	          0.00000000	        205.77907686	        750.14514731	         31.61263899	          0.08106951	         -0.02500000	         -0.01588036	          0.00000000	          0.00000000	          0.00000000	          0.00000000	         -3.43875050	          0.00000000	
          1.07200000	          0.00000000	          0.00000000	          0.00000000	          0.00000000	          0.00000000	          0.00000000	        210.42528357	        736.10777248	         29.72221550	          0.08210186	         -0.02500000	         -0.01537798	          0.00000000	          0.00000000	          0.00000000	          0.00000000	         -3.44767995	          0.00000000	
          1.07600000	          0.00000000	          0.00000000	          0.00000000	          0.00000000	          0.00000000	          0.00000000	        214.27582595	        718.78395301	         27.77203098	          0.08310266	         -0.02500000	         -0.01487793	          0.00000000	          0.00000000	          0.00000000	          0.00000000	         -3.41914340	          0.00000000	
          1.08000000	          0.00000000	          0.00000000	          0.00000000	          0.00000000	          0.00000000	          0.00000000	        217.14812573	        698.04815961	         25.71382145	          0.08407108	         -0.02500000	         -0.01439271	          0.00000000	          0.00000000	          0.00000000	          0.00000000	         -3.35400483	          0.00000000	
